# xmcd
#
# Track frame offsets:
# 150
# 11983
# 22991
# 35499
# 37671
# 48393
# 67665
# 80787
# 93459
# 114006
# 127878
#
# Disc length: 1979 seconds
#
#
# Revision: 0
# Processed by: cddbd v1.5.1PL2 Copyright (c) Steve Scherf et al.
# Submitted via: FreeRIP 2.943 
#
DISCID=7a07b90b
DTITLE=Prairie Rose Wranglers - Christmas  At The Prairie Rose
DYEAR=2000
DGENRE=Western
TTITLE0=Cowboy Christmas
TTITLE1=Rudolph The Red-Nosed Reindeer
TTITLE2=Christmas In Kansas
TTITLE3=Good King Cowboys
TTITLE4=Christmas For Cowboys
TTITLE5=The Old Cowboy
TTITLE6=I Want A Hat Like Gene's
TTITLE7=When It's Christmas On The Range
TTITLE8=What Child Is This/Little Drummer Boy
TTITLE9=Every Day Is Christmas In The West
TTITLE10=Silent Night
EXTD=
EXTT0=
EXTT1=
EXTT2=
EXTT3=
EXTT4=
EXTT5=
EXTT6=
EXTT7=
EXTT8=
EXTT9=
EXTT10=
PLAYORDER=
